<svg xmlns="http://www.w3.org/2000/svg" fill="none" viewBox="0 0 24 24"><path fill="#161616" d="M15 2a7 7 0 0 1 4 12.745v2.019A3 3 0 0 1 17 22H7a3 3 0 0 1-2-5.236v-1.567A6 6 0 0 1 9.827 4.283 6.984 6.984 0 0 1 15 2Zm0 2c-1.665 0-3.14.813-4.05 2.067a1 1 0 0 1-1.238.317A4 4 0 1 0 6.4 13.668a1 1 0 0 1 .6.916v2.684a1 1 0 0 1-.499.865A1 1 0 0 0 7 20h10a1 1 0 0 0 .499-1.867 1 1 0 0 1-.499-.865v-3.07a1 1 0 0 1 .499-.866A5 5 0 0 0 15 4Zm-5 10a1 1 0 0 1 1 1v2a1 1 0 1 1-2 0v-2a1 1 0 0 1 1-1Zm4 0a1 1 0 0 1 1 1v2a1 1 0 1 1-2 0v-2a1 1 0 0 1 1-1Z"/></svg>