<svg xmlns="http://www.w3.org/2000/svg" fill="none" viewBox="0 0 24 24"><path stroke="#FF7A00" stroke-linecap="round" stroke-linejoin="round" stroke-width="2" d="M5 12v7a2 2 0 0 0 2 2h4M3 8h18v4H3V8ZM12 5.5A2.5 2.5 0 1 1 14.5 8H12V5.5ZM12 5.5A2.5 2.5 0 1 0 9.5 8H12V5.5Z"/><path stroke="#EA7100" stroke-linecap="round" stroke-linejoin="round" stroke-width="2" d="M12 8v4"/><path stroke="#FF7A00" stroke-linecap="round" stroke-linejoin="round" stroke-width="2" d="M20 16h-3a1 1 0 1 0 0 2h2a1 1 0 1 1 0 2h-3"/><path stroke="#EA7100" stroke-linecap="round" stroke-linejoin="round" stroke-width="2" d="M18 16v-1M18 21v-1"/></svg>